<?xml version="1.0" standalone="no"?><!DOCTYPE svg PUBLIC "-//W3C//DTD SVG 1.1//EN" "http://www.w3.org/Graphics/SVG/1.1/DTD/svg11.dtd"><svg t="1715243594227" class="icon" viewBox="0 0 1024 1024" version="1.1" xmlns="http://www.w3.org/2000/svg" p-id="8258" xmlns:xlink="http://www.w3.org/1999/xlink" width="200" height="200"><path d="M934.4 204.8H89.6L0 435.2c0 70.4 57.6 128 128 128s128-57.6 128-128c0 70.4 57.6 128 128 128s128-57.6 128-128c0 70.4 57.6 128 128 128s128-57.6 128-128c0 70.4 57.6 128 128 128s128-57.6 128-128l-89.6-230.4z m-70.4 396.8V896h-704V601.6H89.6v307.2c0 25.6 32 57.6 57.6 57.6h736c25.6 0 57.6-32 57.6-57.6V601.6h-76.8z m70.4-396.8zM147.2 147.2h729.6c25.6 0 44.8-19.2 44.8-44.8 0-25.6-19.2-44.8-44.8-44.8H147.2c-25.6 0-44.8 19.2-44.8 44.8 0 25.6 19.2 44.8 44.8 44.8z" fill="#409EFF" p-id="8259"></path></svg>